<svg xmlns="http://www.w3.org/2000/svg" xmlns:xlink="http://www.w3.org/1999/xlink" width="500" zoomAndPan="magnify" viewBox="0 0 375 374.999991" height="500" preserveAspectRatio="xMidYMid meet" version="1.0"><defs><clipPath id="370dea0015"><path d="M 37.5 37.5 L 337.5 37.5 L 337.5 337.5 L 37.5 337.5 Z M 37.5 37.5 " clip-rule="nonzero"/></clipPath><clipPath id="74a1177c17"><path d="M 187.5 37.5 C 104.65625 37.5 37.5 104.65625 37.5 187.5 C 37.5 270.34375 104.65625 337.5 187.5 337.5 C 270.34375 337.5 337.5 270.34375 337.5 187.5 C 337.5 104.65625 270.34375 37.5 187.5 37.5 Z M 187.5 37.5 " clip-rule="nonzero"/></clipPath><clipPath id="a1c23de28e"><path d="M 100.261719 96.03125 L 274 96.03125 L 274 246 L 100.261719 246 Z M 100.261719 96.03125 " clip-rule="nonzero"/></clipPath></defs><g clip-path="url(#370dea0015)"><g clip-path="url(#74a1177c17)"><path fill="#ff5758" d="M 37.5 37.5 L 337.5 37.5 L 337.5 337.5 L 37.5 337.5 Z M 37.5 37.5 " fill-opacity="1" fill-rule="nonzero"/></g></g><g clip-path="url(#a1c23de28e)"><path fill="#ffffff" d="M 249.683594 229.070312 L 163.609375 229.070312 C 163.117188 229.089844 162.628906 229.054688 162.140625 228.972656 C 161.65625 228.890625 161.183594 228.761719 160.722656 228.585938 C 160.265625 228.410156 159.828125 228.1875 159.410156 227.921875 C 158.996094 227.660156 158.613281 227.355469 158.257812 227.011719 C 157.902344 226.671875 157.585938 226.296875 157.308594 225.890625 C 157.03125 225.484375 156.792969 225.054688 156.601562 224.601562 C 156.410156 224.148438 156.265625 223.679688 156.167969 223.195312 C 156.066406 222.714844 156.019531 222.226562 156.019531 221.734375 C 156.019531 221.242188 156.066406 220.753906 156.167969 220.273438 C 156.265625 219.789062 156.410156 219.320312 156.601562 218.867188 C 156.792969 218.414062 157.03125 217.984375 157.308594 217.578125 C 157.585938 217.171875 157.902344 216.796875 158.257812 216.457031 C 158.613281 216.113281 158.996094 215.808594 159.410156 215.546875 C 159.828125 215.28125 160.265625 215.058594 160.722656 214.882812 C 161.183594 214.707031 161.65625 214.574219 162.140625 214.492188 C 162.628906 214.414062 163.117188 214.378906 163.609375 214.394531 L 249.683594 214.394531 C 250.15625 214.398438 250.621094 214.359375 251.085938 214.277344 C 251.546875 214.199219 252 214.082031 252.445312 213.925781 C 252.886719 213.773438 253.316406 213.582031 253.726562 213.351562 C 254.136719 213.125 254.523438 212.863281 254.890625 212.570312 C 255.257812 212.277344 255.597656 211.953125 255.910156 211.601562 C 256.222656 211.25 256.5 210.875 256.75 210.476562 C 257 210.078125 257.210938 209.660156 257.390625 209.226562 C 257.566406 208.792969 257.707031 208.34375 257.808594 207.886719 L 273.464844 137.449219 C 273.601562 136.839844 273.664062 136.226562 273.660156 135.605469 C 273.660156 134.980469 273.585938 134.367188 273.445312 133.761719 C 273.300781 133.15625 273.09375 132.570312 272.824219 132.011719 C 272.550781 131.453125 272.21875 130.929688 271.828125 130.445312 C 271.4375 129.960938 271 129.523438 270.511719 129.136719 C 270.023438 128.75 269.5 128.421875 268.9375 128.152344 C 268.378906 127.886719 267.792969 127.683594 267.1875 127.542969 C 266.578125 127.40625 265.964844 127.339844 265.34375 127.339844 L 147.949219 127.339844 C 147.355469 127.335938 146.765625 127.398438 146.179688 127.519531 L 140.410156 102.476562 C 140.304688 102.023438 140.160156 101.578125 139.980469 101.148438 C 139.800781 100.714844 139.589844 100.304688 139.339844 99.910156 C 139.089844 99.515625 138.808594 99.144531 138.496094 98.796875 C 138.1875 98.449219 137.847656 98.128906 137.480469 97.839844 C 137.117188 97.546875 136.730469 97.289062 136.320312 97.066406 C 135.910156 96.839844 135.484375 96.648438 135.046875 96.496094 C 134.605469 96.34375 134.152344 96.226562 133.691406 96.148438 C 133.234375 96.070312 132.769531 96.03125 132.300781 96.03125 L 108.820312 96.03125 C 108.273438 96.03125 107.734375 96.085938 107.199219 96.191406 C 106.664062 96.296875 106.144531 96.457031 105.640625 96.664062 C 105.132812 96.875 104.65625 97.128906 104.203125 97.433594 C 103.746094 97.738281 103.328125 98.082031 102.941406 98.46875 C 102.554688 98.855469 102.210938 99.273438 101.90625 99.726562 C 101.605469 100.183594 101.347656 100.660156 101.140625 101.164062 C 100.929688 101.667969 100.773438 102.191406 100.664062 102.726562 C 100.558594 103.261719 100.503906 103.800781 100.503906 104.347656 C 100.503906 104.894531 100.558594 105.433594 100.664062 105.96875 C 100.773438 106.503906 100.929688 107.023438 101.140625 107.53125 C 101.347656 108.035156 101.605469 108.511719 101.90625 108.96875 C 102.210938 109.421875 102.554688 109.839844 102.941406 110.226562 C 103.328125 110.613281 103.746094 110.957031 104.203125 111.261719 C 104.65625 111.5625 105.132812 111.820312 105.640625 112.03125 C 106.144531 112.238281 106.664062 112.394531 107.199219 112.503906 C 107.734375 112.609375 108.273438 112.664062 108.820312 112.664062 L 125.683594 112.664062 L 146.902344 204.601562 C 146.054688 205.425781 145.269531 206.308594 144.550781 207.253906 C 143.832031 208.195312 143.183594 209.183594 142.613281 210.222656 C 142.042969 211.261719 141.550781 212.335938 141.136719 213.445312 C 140.722656 214.554688 140.398438 215.691406 140.152344 216.851562 C 139.910156 218.011719 139.753906 219.183594 139.683594 220.363281 C 139.613281 221.546875 139.632812 222.730469 139.738281 223.910156 C 139.84375 225.089844 140.035156 226.257812 140.316406 227.40625 C 140.59375 228.558594 140.957031 229.683594 141.402344 230.78125 C 141.847656 231.878906 142.375 232.9375 142.976562 233.957031 C 143.582031 234.976562 144.257812 235.949219 145.003906 236.867188 C 145.75 237.785156 146.5625 238.644531 147.4375 239.445312 C 148.3125 240.242188 149.242188 240.972656 150.226562 241.636719 C 151.210938 242.296875 152.238281 242.878906 153.308594 243.390625 C 154.378906 243.898438 155.480469 244.324219 156.613281 244.667969 C 157.746094 245.011719 158.898438 245.273438 160.074219 245.445312 C 161.246094 245.617188 162.421875 245.703125 163.609375 245.703125 L 249.683594 245.703125 C 250.230469 245.703125 250.773438 245.648438 251.308594 245.542969 C 251.84375 245.4375 252.363281 245.277344 252.867188 245.070312 C 253.371094 244.859375 253.851562 244.605469 254.304688 244.300781 C 254.757812 243.996094 255.179688 243.652344 255.566406 243.265625 C 255.949219 242.878906 256.296875 242.460938 256.597656 242.007812 C 256.902344 241.554688 257.15625 241.074219 257.367188 240.570312 C 257.574219 240.066406 257.734375 239.542969 257.839844 239.007812 C 257.945312 238.472656 258 237.933594 258 237.386719 C 258 236.839844 257.945312 236.300781 257.839844 235.765625 C 257.734375 235.230469 257.574219 234.710938 257.367188 234.207031 C 257.15625 233.699219 256.902344 233.222656 256.597656 232.769531 C 256.296875 232.3125 255.949219 231.894531 255.566406 231.507812 C 255.179688 231.121094 254.757812 230.777344 254.304688 230.472656 C 253.851562 230.171875 253.371094 229.914062 252.867188 229.707031 C 252.363281 229.496094 251.84375 229.339844 251.308594 229.230469 C 250.773438 229.125 250.230469 229.070312 249.683594 229.070312 Z M 249.683594 229.070312 " fill-opacity="1" fill-rule="nonzero"/></g><path fill="#ffffff" d="M 187.082031 266.488281 C 187.082031 267.308594 187 268.121094 186.839844 268.921875 C 186.683594 269.726562 186.445312 270.507812 186.132812 271.261719 C 185.820312 272.019531 185.433594 272.738281 184.980469 273.417969 C 184.523438 274.101562 184.007812 274.730469 183.429688 275.308594 C 182.847656 275.886719 182.21875 276.40625 181.539062 276.859375 C 180.855469 277.316406 180.136719 277.699219 179.382812 278.011719 C 178.625 278.324219 177.84375 278.5625 177.042969 278.722656 C 176.238281 278.882812 175.429688 278.960938 174.609375 278.960938 C 173.789062 278.960938 172.980469 278.882812 172.175781 278.722656 C 171.371094 278.5625 170.59375 278.324219 169.835938 278.011719 C 169.078125 277.699219 168.359375 277.316406 167.679688 276.859375 C 167 276.40625 166.367188 275.886719 165.789062 275.308594 C 165.210938 274.730469 164.695312 274.101562 164.238281 273.417969 C 163.785156 272.738281 163.398438 272.019531 163.085938 271.261719 C 162.773438 270.507812 162.535156 269.726562 162.375 268.921875 C 162.214844 268.121094 162.136719 267.308594 162.136719 266.488281 C 162.136719 265.671875 162.214844 264.859375 162.375 264.054688 C 162.535156 263.253906 162.773438 262.472656 163.085938 261.714844 C 163.398438 260.960938 163.785156 260.242188 164.238281 259.558594 C 164.695312 258.878906 165.210938 258.25 165.789062 257.671875 C 166.367188 257.089844 167 256.574219 167.679688 256.117188 C 168.359375 255.664062 169.078125 255.28125 169.835938 254.964844 C 170.59375 254.652344 171.371094 254.417969 172.175781 254.257812 C 172.980469 254.097656 173.789062 254.015625 174.609375 254.015625 C 175.429688 254.015625 176.238281 254.097656 177.042969 254.257812 C 177.84375 254.417969 178.625 254.652344 179.382812 254.964844 C 180.136719 255.28125 180.855469 255.664062 181.539062 256.117188 C 182.21875 256.574219 182.847656 257.089844 183.429688 257.671875 C 184.007812 258.25 184.523438 258.878906 184.980469 259.558594 C 185.433594 260.242188 185.820312 260.960938 186.132812 261.714844 C 186.445312 262.472656 186.683594 263.253906 186.839844 264.054688 C 187 264.859375 187.082031 265.671875 187.082031 266.488281 Z M 187.082031 266.488281 " fill-opacity="1" fill-rule="nonzero"/><path fill="#ffffff" d="M 245.285156 266.488281 C 245.285156 267.308594 245.207031 268.121094 245.046875 268.921875 C 244.886719 269.726562 244.648438 270.507812 244.335938 271.261719 C 244.023438 272.019531 243.640625 272.738281 243.183594 273.417969 C 242.730469 274.101562 242.210938 274.730469 241.632812 275.308594 C 241.054688 275.886719 240.425781 276.40625 239.742188 276.859375 C 239.0625 277.316406 238.34375 277.699219 237.585938 278.011719 C 236.832031 278.324219 236.050781 278.5625 235.246094 278.722656 C 234.445312 278.882812 233.632812 278.960938 232.8125 278.960938 C 231.996094 278.960938 231.183594 278.882812 230.378906 278.722656 C 229.578125 278.5625 228.796875 278.324219 228.039062 278.011719 C 227.285156 277.699219 226.566406 277.316406 225.882812 276.859375 C 225.203125 276.40625 224.574219 275.886719 223.996094 275.308594 C 223.414062 274.730469 222.898438 274.101562 222.441406 273.417969 C 221.988281 272.738281 221.605469 272.019531 221.289062 271.261719 C 220.976562 270.507812 220.742188 269.726562 220.582031 268.921875 C 220.421875 268.121094 220.339844 267.308594 220.339844 266.488281 C 220.339844 265.671875 220.421875 264.859375 220.582031 264.054688 C 220.742188 263.253906 220.976562 262.472656 221.289062 261.714844 C 221.605469 260.960938 221.988281 260.242188 222.441406 259.558594 C 222.898438 258.878906 223.414062 258.25 223.996094 257.671875 C 224.574219 257.089844 225.203125 256.574219 225.882812 256.117188 C 226.566406 255.664062 227.285156 255.28125 228.039062 254.964844 C 228.796875 254.652344 229.578125 254.417969 230.378906 254.257812 C 231.183594 254.097656 231.996094 254.015625 232.8125 254.015625 C 233.632812 254.015625 234.445312 254.097656 235.246094 254.257812 C 236.050781 254.417969 236.832031 254.652344 237.585938 254.964844 C 238.34375 255.28125 239.0625 255.664062 239.742188 256.117188 C 240.425781 256.574219 241.054688 257.089844 241.632812 257.671875 C 242.210938 258.25 242.730469 258.878906 243.183594 259.558594 C 243.640625 260.242188 244.023438 260.960938 244.335938 261.714844 C 244.648438 262.472656 244.886719 263.253906 245.046875 264.054688 C 245.207031 264.859375 245.285156 265.671875 245.285156 266.488281 Z M 245.285156 266.488281 " fill-opacity="1" fill-rule="nonzero"/></svg>